<?xml version="1.0" encoding="utf-8"?>
<!--
  ~ MIT License
  ~
  ~ Copyright (c) 2017 Frederik Ar. Mikkelsen
  ~
  ~ Permission is hereby granted, free of charge, to any person obtaining a copy
  ~ of this software and associated documentation files (the "Software"), to deal
  ~ in the Software without restriction, including without limitation the rights
  ~ to use, copy, modify, merge, publish, distribute, sublicense, and/or sell
  ~ copies of the Software, and to permit persons to whom the Software is
  ~ furnished to do so, subject to the following conditions:
  ~
  ~ The above copyright notice and this permission notice shall be included in all
  ~ copies or substantial portions of the Software.
  ~
  ~ THE SOFTWARE IS PROVIDED "AS IS", WITHOUT WARRANTY OF ANY KIND, EXPRESS OR
  ~ IMPLIED, INCLUDING BUT NOT LIMITED TO THE WARRANTIES OF MERCHANTABILITY,
  ~ FITNESS FOR A PARTICULAR PURPOSE AND NONINFRINGEMENT. IN NO EVENT SHALL THE
  ~ AUTHORS OR COPYRIGHT HOLDERS BE LIABLE FOR ANY CLAIM, DAMAGES OR OTHER
  ~ LIABILITY, WHETHER IN AN ACTION OF CONTRACT, TORT OR OTHERWISE, ARISING FROM,
  ~ OUT OF OR IN CONNECTION WITH THE SOFTWARE OR THE USE OR OTHER DEALINGS IN THE
  ~ SOFTWARE.
  ~
  -->

<!-- Generator: Adobe Illustrator 18.0.0, SVG Export Plug-In . SVG Version: 6.00 Build 0)  -->
<!DOCTYPE svg PUBLIC "-//W3C//DTD SVG 1.1//EN" "http://www.w3.org/Graphics/SVG/1.1/DTD/svg11.dtd">
<svg version="1.1" id="Layer_1" xmlns="http://www.w3.org/2000/svg" xmlns:xlink="http://www.w3.org/1999/xlink" x="0px" y="0px"
	 viewBox="0 0 300 300" enable-background="new 0 0 300 300" xml:space="preserve">
<g>
	<path fill="#FFFFFF" d="M108.7,149.8c0,0.4,0,0.8,0,1.2c0,0.4,0.1,0.8,0.1,1.2c0.7,5.3,3.1,9.7,7.6,12.7c4.4,3,10.6,2.9,15-0.1
		c4.3-2.9,6.6-7,7.4-12.1c0.8-5-0.2-9.6-3-13.7c-3.1-4.5-7.4-6.9-13-6.5c-3.5,0.2-6.5,1.7-8.9,4.2
		C110.3,140.3,108.8,144.8,108.7,149.8z M195.4,149.6c0-0.5-0.1-1.3-0.2-2.1c-0.6-4.7-2.5-8.7-6.2-11.7c-3.1-2.6-6.6-3.7-10.6-3.2
		c-4.3,0.6-7.7,2.9-10.1,6.4c-2.9,4.2-3.8,8.8-3.1,13.8c0.6,4.3,2.5,8,5.8,10.9c5.5,4.9,13.8,4.6,19-0.6
		C193.7,159.4,195.4,154.9,195.4,149.6z"/>
</g>
<rect fill="#FAA61A" width="300" height="299.9"/>
<polygon fill="#2C2C2C" points="276.1,221.3 152.1,292.9 28,221.3 28,78.1 152.1,6.5 276.1,78.1 "/>
<g>
	<path fill="#FFFFFF" d="M60.6,194.8c4-1,7.9-1.7,11.6-2.9c12.4-3.7,23.9-9.7,35-16.2c15-8.8,29.8-18,44.8-26.8
		c13.2-7.8,26.8-14.9,41.4-19.5c8.6-2.8,17.4-4.5,26.5-4.3c1.5,0,2.9,0.1,4.4,0.3c0.5,0.1,1.1,0.5,1.3,0.9c6,9.3,8.6,19.5,7.4,30.5
		c-2.2,20.1-12.4,35.8-27.1,49c-0.5,0.5-1.7,0.6-2.5,0.4c-8.6-2.3-17.3-3.7-26.3-3.6c-11.2,0.2-21.9,3-32.4,6.8
		c-9.7,3.5-19.3,7.3-29.1,10.3c-10.7,3.3-21.8,3.9-33,2.7c-2.1-0.2-3.6-0.9-5.1-2.3c-7.1-6.2-13.2-13.1-16.1-22.3
		C61.2,196.9,60.9,195.9,60.6,194.8z M210.2,193.1c3.6-5.4,9.7-19.5,11.3-25.7c1.6-6.1,3.3-25.1,2.4-28.5
		C222,157.9,217.5,175.9,210.2,193.1z"/>
	<path fill="#FFFFFF" d="M100.7,170c1.3-2.4,2.5-4.4,3.6-6.5c11-19.5,20.5-39.7,27.6-61c4.9-14.7,8.8-29.6,12.2-44.7
		c1.9-8.3,3.6-16.6,5.3-25c0.1-0.5,0.3-1,0.5-1.9c5.3,2.9,10.5,5.5,15.6,8.6C189.7,54.2,210,73,226,96.4
		c7.6,11.2,13.7,23.2,17.5,36.3c0,0.1,0,0.2,0,0.5c-0.8-1.4-1.4-2.8-2.2-4c-4.3-7.1-10.9-10.9-19-12.2c-10.7-1.7-20.9,0.4-31.1,3.3
		c-15.7,4.6-30.3,11.6-44.5,19.6c-15.8,8.8-30.8,18.8-45.2,29.7C101.4,169.7,101.2,169.8,100.7,170z M160.9,43.5
		c-0.2,0.1-0.3,0.3-0.5,0.4c16.1,16.7,31,34.2,38.2,56.9c-1.1-4.5-2.4-8.9-3.9-13.2c-4.3-11.5-11.2-21.4-19.7-30.1
		C170.3,52.7,165.5,48.1,160.9,43.5z"/>
	<path fill="#FFFFFF" d="M249.9,231.7c-6.6-2.4-12.8-4.9-19.3-7c-14.2-4.6-28.7-7.4-43.7-6.8c-10.9,0.4-21.4,2.8-31.7,6
		c-9.3,2.9-18.5,6.1-27.9,8.6c-16.9,4.5-33.5,2.8-49.7-3.2c-4.4-1.6-8.7-3.6-13.1-5.5c-0.6-0.2-1.1-0.5-1.6-1
		c3.4,0.8,6.9,1.7,10.3,2.4c17.1,3.7,33.8,2.5,50.2-3.4c9.2-3.3,18.3-7,27.6-10.1c10.5-3.6,21.4-5.3,32.6-4.6c14.4,1,28,5.2,41,11.2
		c7.9,3.7,15.6,8,23.3,12C248.5,230.7,249,231.2,249.9,231.7z"/>
	<path fill="#2C2C2C" d="M210.2,193.1c7.2-17.3,11.8-35.2,13.7-54.3c0.9,3.4-0.8,22.4-2.4,28.5C219.9,173.6,213.8,187.8,210.2,193.1
		z"/>
	<path fill="#2C2C2C" d="M160.9,43.5c4.7,4.6,9.5,9.2,14.1,13.9c8.5,8.8,15.4,18.6,19.7,30.1c1.6,4.3,2.8,8.7,3.9,13.2
		c-7.2-22.7-22.1-40.2-38.2-56.9C160.5,43.8,160.7,43.6,160.9,43.5z"/>
</g>
<path fill="#FFFFFF" d="M101.5,118.7c-1.8-7.3-3.6-14.6-5.4-22c0.7-0.2,1.4-0.4,2-0.5c0.1,0,0.4,0.1,0.5,0.2c1.2,1.9,3.1,2.8,4.8,4
	c1.8,1.3,3.9,2.1,5.5,3.8c3.5,3.8,3.5,8,1.4,12.4c-0.1,0.2-0.4,0.3-0.7,0.4c-0.1-0.3-0.2-0.6-0.2-0.9c0.6-2.9-0.2-5.5-1.8-7.8
	c-1.7-2.4-4.2-3.7-7.2-4.3c0.1,0.6,0.2,1.2,0.4,1.7c1.4,5.3,2.9,10.6,4.2,15.9c0.2,0.8,0.1,1.8-0.2,2.5c-1.3,2.9-3.6,4.7-6.7,5.2
	c-2.8,0.5-5.8-2.4-5.6-5.3c0.2-3.8,2.9-6.1,6.7-5.7C99.9,118.5,100.6,118.6,101.5,118.7z"/>
<path fill="#FFFFFF" d="M70.2,106.1C67.5,95,64.7,84,61.9,72.8C63,72.5,64,72.2,65,72c0.2,0,0.6,0.1,0.7,0.3
	c1.8,2.9,4.7,4.3,7.3,6.1c2.8,1.9,5.9,3.2,8.3,5.8c5.3,5.8,5.3,12.1,2.2,18.9c-0.1,0.3-0.7,0.4-1,0.6c-0.1-0.4-0.4-0.9-0.3-1.3
	c0.8-4.4-0.3-8.3-2.8-11.9c-2.6-3.7-6.4-5.6-11-6.5c0.2,1,0.3,1.8,0.5,2.6c2.2,8.1,4.4,16.1,6.4,24.2c0.3,1.2,0.2,2.7-0.3,3.8
	c-2,4.4-5.4,7.1-10.2,7.9c-4.2,0.7-8.8-3.6-8.6-8.1c0.3-5.8,4.4-9.3,10.1-8.7C67.8,105.8,69,106,70.2,106.1z"/>
</svg>
